<?xml version="1.0" encoding="UTF-8" standalone="no"?>
<!-- Generator: Adobe Illustrator 18.0.0, SVG Export Plug-In . SVG Version: 6.00 Build 0)  -->

<svg
   xmlns:dc="http://purl.org/dc/elements/1.1/"
   xmlns:cc="http://creativecommons.org/ns#"
   xmlns:rdf="http://www.w3.org/1999/02/22-rdf-syntax-ns#"
   xmlns:svg="http://www.w3.org/2000/svg"
   xmlns="http://www.w3.org/2000/svg"
   xmlns:sodipodi="http://sodipodi.sourceforge.net/DTD/sodipodi-0.dtd"
   xmlns:inkscape="http://www.inkscape.org/namespaces/inkscape"
   version="1.1"
   id="GraphQL_Logo"
   x="0px"
   y="0px"
   viewBox="0 0 400 400"
   enable-background="new 0 0 400 400"
   xml:space="preserve"
   inkscape:version="0.91 r13725"
   sodipodi:docname="html.svg"><metadata
     id="metadata75"><rdf:RDF><cc:Work
         rdf:about=""><dc:format>image/svg+xml</dc:format><dc:type
           rdf:resource="http://purl.org/dc/dcmitype/StillImage" /><dc:title /></cc:Work></rdf:RDF></metadata><defs
     id="defs73" /><sodipodi:namedview
     pagecolor="#ffffff"
     bordercolor="#666666"
     borderopacity="1"
     objecttolerance="10"
     gridtolerance="10"
     guidetolerance="10"
     inkscape:pageopacity="0"
     inkscape:pageshadow="2"
     inkscape:window-width="1536"
     inkscape:window-height="801"
     id="namedview71"
     showgrid="false"
     inkscape:zoom="0.834386"
     inkscape:cx="-93.406126"
     inkscape:cy="159.83315"
     inkscape:window-x="-8"
     inkscape:window-y="1072"
     inkscape:window-maximized="1"
     inkscape:current-layer="GraphQL_Logo" /><circle
     style="opacity:1;fill:#1f77b4;fill-opacity:0.94117647;stroke:none;stroke-width:1.00157475;stroke-miterlimit:4;stroke-dasharray:none;stroke-dashoffset:0;stroke-opacity:1"
     id="path4271"
     cx="199.34566"
     cy="200.45207"
     r="198.34944" /><g
     style="fill:#000000"
     id="g821"
     transform="matrix(6.5905124,0,0,6.5905124,8.1831356,-8.7660179)" /><g
     style="fill:#000000"
     id="g823"
     transform="matrix(6.5905124,0,0,6.5905124,8.1831356,-8.7660179)" /><g
     style="fill:#000000"
     id="g825"
     transform="matrix(6.5905124,0,0,6.5905124,8.1831356,-8.7660179)" /><g
     style="fill:#000000"
     id="g827"
     transform="matrix(6.5905124,0,0,6.5905124,8.1831356,-8.7660179)" /><g
     style="fill:#000000"
     id="g829"
     transform="matrix(6.5905124,0,0,6.5905124,8.1831356,-8.7660179)" /><g
     style="fill:#000000"
     id="g831"
     transform="matrix(6.5905124,0,0,6.5905124,8.1831356,-8.7660179)" /><g
     style="fill:#000000"
     id="g833"
     transform="matrix(6.5905124,0,0,6.5905124,8.1831356,-8.7660179)" /><g
     style="fill:#000000"
     id="g835"
     transform="matrix(6.5905124,0,0,6.5905124,8.1831356,-8.7660179)" /><g
     style="fill:#000000"
     id="g837"
     transform="matrix(6.5905124,0,0,6.5905124,8.1831356,-8.7660179)" /><g
     style="fill:#000000"
     id="g839"
     transform="matrix(6.5905124,0,0,6.5905124,8.1831356,-8.7660179)" /><g
     style="fill:#000000"
     id="g841"
     transform="matrix(6.5905124,0,0,6.5905124,8.1831356,-8.7660179)" /><g
     style="fill:#000000"
     id="g843"
     transform="matrix(6.5905124,0,0,6.5905124,8.1831356,-8.7660179)" /><g
     style="fill:#000000"
     id="g845"
     transform="matrix(6.5905124,0,0,6.5905124,8.1831356,-8.7660179)" /><g
     style="fill:#000000"
     id="g847"
     transform="matrix(6.5905124,0,0,6.5905124,8.1831356,-8.7660179)" /><g
     style="fill:#000000"
     id="g849"
     transform="matrix(6.5905124,0,0,6.5905124,8.1831356,-8.7660179)" /><text
     xml:space="preserve"
     style="font-style:normal;font-variant:normal;font-weight:normal;font-stretch:normal;font-size:32px;line-height:125%;font-family:sans-serif;-inkscape-font-specification:'sans-serif, Normal';text-align:center;letter-spacing:0px;word-spacing:0px;writing-mode:lr-tb;text-anchor:middle;fill:#000000;fill-opacity:1;stroke:none;stroke-width:1px;stroke-linecap:butt;stroke-linejoin:miter;stroke-opacity:1"
     x="270.85785"
     y="219.02859"
     id="text4267"
     sodipodi:linespacing="125%"><tspan
       sodipodi:role="line"
       id="tspan4269"
       x="276.48285"
       y="219.02859" /></text>
<path
     style="fill:#185c8e;fill-opacity:0.99607843"
     inkscape:connector-curvature="0"
     d="m 99.026596,317.6149 -21.5536,-241.922818 236.958974,0 -21.5536,241.792198 -97.12183,26.90934"
     id="path4166" /><path
     style="fill:#1f77b5;fill-opacity:0.94117647"
     inkscape:connector-curvature="0"
     d="m 195.95248,323.81973 0,-228.272208 96.86057,0 -18.48384,206.392038"
     id="path4168" /><path
     style="fill:#ebebeb"
     inkscape:connector-curvature="0"
     d="m 121.49459,125.13473 74.45789,0 0,29.65253 -41.93155,0 2.74319,30.37098 39.18836,0 0,29.58722 -66.35896,0 m 1.30628,14.89157 29.78316,0 2.09004,23.70897 33.17948,8.88269 0,30.9588 -60.87259,-16.98162"
     id="path4170" /><path
     style="fill:#ffffff"
     inkscape:connector-curvature="0"
     d="m 270.14911,125.13473 -74.32725,0 0,29.65253 71.58407,0 m -2.67788,30.37098 -68.90619,0 0,29.65253 36.57579,0 -3.46163,38.53523 -33.11416,8.88269 0,30.82818 60.74195,-16.851"
     id="path4172" /></svg>